<svg id="Capa_1" enable-background="new 0 0 502 502" height="512" viewBox="0 0 502 502" width="512" xmlns="http://www.w3.org/2000/svg" xmlns:xlink="http://www.w3.org/1999/xlink"><linearGradient id="lg1"><stop offset="0" stop-color="#7ed99e"/><stop offset=".2532" stop-color="#81daa3"/><stop offset=".5725" stop-color="#88ddb3"/><stop offset=".9261" stop-color="#95e2cd"/><stop offset="1" stop-color="#98e3d3"/></linearGradient><linearGradient id="SVGID_1_" gradientUnits="userSpaceOnUse" x1="376.5" x2="376.5" xlink:href="#lg1" y1="627.412" y2="347.782"/><linearGradient id="lg2"><stop offset="0" stop-color="#6ac65e"/><stop offset="1" stop-color="#afd986"/></linearGradient><linearGradient id="SVGID_2_" gradientUnits="userSpaceOnUse" x1="432.26" x2="432.26" xlink:href="#lg2" y1="375.271" y2="200.627"/><linearGradient id="SVGID_3_" gradientUnits="userSpaceOnUse" x1="262.954" x2="262.954" xlink:href="#lg1" y1="304.126" y2="73.086"/><linearGradient id="SVGID_4_" gradientUnits="userSpaceOnUse" x1="248.329" x2="83.459" xlink:href="#lg2" y1="96.361" y2="96.361"/><linearGradient id="SVGID_5_" gradientUnits="userSpaceOnUse" x1="-123.033" x2="124.038" xlink:href="#lg1" y1="329.01" y2="329.01"/><linearGradient id="SVGID_6_" gradientUnits="userSpaceOnUse" x1="53.191" x2="214.671" xlink:href="#lg2" y1="394.451" y2="394.451"/><g><path d="m484.414 275.929-16.137-27.95c-11.728-20.316-37.705-27.277-58.023-15.548-20.316 11.73-27.277 37.708-15.547 58.024l16.137 27.95c11.662 20.199 3.886 38.031 0 44.76-3.885 6.729-15.439 22.38-38.764 22.38h-2.185c-2.095 0-3.794-1.698-3.794-3.794 0-20.974-23.341-33.515-40.83-21.938l-58.39 38.652c-21.174 14.016-21.174 45.096 0 59.112l58.39 38.652c17.489 11.577 40.83-.964 40.83-21.938 0-2.095 1.698-3.794 3.794-3.794h2.185c46.894 0 88.889-24.246 112.335-64.857 23.447-40.61 23.446-89.101-.001-129.711z" fill="url(#SVGID_1_)"/><path d="m410.254 232.431c-20.316 11.73-27.277 37.708-15.547 58.024l16.137 27.95c11.662 20.199 3.886 38.031 0 44.76-3.885 6.729-15.439 22.38-38.764 22.38 120.774 0 132.693-74.354 112.334-109.617l-16.137-27.95c-11.728-20.315-37.705-27.276-58.023-15.547z" fill="url(#SVGID_2_)"/><path d="m369.611 69.493c-1.815 1.048-4.135.426-5.183-1.389l-1.093-1.892c-23.447-40.612-65.442-64.858-112.335-64.857-46.894 0-88.888 24.246-112.334 64.857l-16.137 27.949c-11.729 20.315-4.77 46.293 15.547 58.023 20.316 11.729 46.294 4.768 58.024-15.548l16.137-27.95c11.662-20.197 30.993-22.379 38.763-22.378 7.77 0 27.101 2.18 38.764 22.381l1.093 1.893c1.048 1.814.426 4.135-1.389 5.183-18.164 10.486-17.354 36.971 1.416 46.328l62.669 31.242c22.725 11.329 49.641-4.211 51.193-29.556l4.278-69.893c1.281-20.936-21.25-34.879-39.413-24.393z" fill="url(#SVGID_3_)"/><path d="m138.076 152.186c20.316 11.729 46.294 4.768 58.024-15.548l16.137-27.95c11.662-20.199 30.993-22.381 38.763-22.38 7.77 0 27.101 2.18 38.764 22.381-60.387-104.594-130.739-77.739-151.098-42.476l-16.137 27.95c-11.73 20.314-4.77 46.292 15.547 58.023z" fill="url(#SVGID_4_)"/><path d="m137.053 102.005c7.892 4.556 17.983 1.852 22.539-6.039l7.652-13.253c4.136-7.164 14.429-14.874 27.254-14.874 12.801 0 26.67 7.531 40.261 21.419 6.615-2.481 12.658-2.95 16.241-2.949 7.77 0 27.101 2.18 38.764 22.381-60.387-104.595-130.739-77.74-151.098-42.477l-7.652 13.253c-4.556 7.892-1.852 17.983 6.039 22.539z" fill="#1ab858"/><path d="m162.194 385.546h-32.274c-23.324 0-34.879-15.65-38.763-22.38-3.885-6.729-11.663-24.56 0-44.761l1.093-1.892c1.048-1.815 3.368-2.436 5.182-1.389 18.164 10.487 40.695-3.457 39.414-24.392l-4.278-69.893c-1.551-25.345-28.468-40.885-51.193-29.556l-62.668 31.241c-18.77 9.357-19.58 35.842-1.417 46.329 1.815 1.048 2.436 3.368 1.389 5.182l-1.093 1.893c-23.447 40.612-23.447 89.103 0 129.714s65.442 64.856 112.335 64.855h32.274c23.458.001 42.475-19.015 42.476-42.476-.001-23.458-19.018-42.475-42.477-42.475z" fill="url(#SVGID_5_)"/><path d="m204.67 428.022c0-23.459-19.018-42.476-42.477-42.476h-32.274c-23.324 0-34.879-15.65-38.763-22.38-3.885-6.729-11.662-24.56 0-44.761-60.387 104.593-1.954 152.093 38.764 152.093h32.274c23.458 0 42.476-19.016 42.476-42.476z" fill="url(#SVGID_6_)"/></g></svg>