<svg id="Filled" height="512" viewBox="0 0 512 512" width="512" xmlns="http://www.w3.org/2000/svg"><path d="m128 168h-48s-8-24-8-40 8-40 8-40h48s8 24 8 40-8 40-8 40z" fill="#fc8c03"/><path d="m176 216h-144l48-48h48z" fill="#fc8c03"/><path d="m32 216h144v32h-144z" fill="#fc8c03"/><path d="m32 424h144a0 0 0 0 1 0 0v48a16 16 0 0 1 -16 16h-112a16 16 0 0 1 -16-16v-48a0 0 0 0 1 0 0z" fill="#fc8c03"/><path d="m32 248h144v192h-144z" fill="#bd620e"/><path d="m88 24h32a16 16 0 0 1 16 16v48a0 0 0 0 1 0 0h-64a0 0 0 0 1 0 0v-48a16 16 0 0 1 16-16z" fill="#95573a"/><path d="m136 40v16h-64v-16a16 16 0 0 1 16-16h32a16 16 0 0 1 16 16z" fill="#bd620e"/><path d="m311.731 213.845-15.731-133.845h-48l-15.731 133.845a63.866 63.866 0 0 0 -24.269 50.155v207.508a16.492 16.492 0 0 0 16.492 16.492h95.016a16.492 16.492 0 0 0 16.492-16.492v-207.508a63.866 63.866 0 0 0 -24.269-50.155z" fill="#74C69D"/><path d="m448 189.4v-101.4h-48v101.4a56 56 0 0 0 -32 50.6v232a16 16 0 0 0 16 16h80a16 16 0 0 0 16-16v-232a56 56 0 0 0 -32-50.6z" fill="#962523"/><path d="m400 88h48v64h-48z" fill="#c7312e"/><path d="m384 56h80v32h-80z" fill="#a82a27"/><path d="m408 24h32a16 16 0 0 1 16 16v16a0 0 0 0 1 0 0h-64a0 0 0 0 1 0 0v-16a16 16 0 0 1 16-16z" fill="#962523"/><path d="m368 232h112v208h-112z" fill="#a82a27"/><rect fill="#f7b030" height="128" rx="24" width="48" x="80" y="280"/><ellipse cx="272" cy="344" fill="#e9eef2" rx="40" ry="64"/><path d="m312 56h-80l4.97-19.881a16 16 0 0 1 15.522-12.119h39.016a16 16 0 0 1 15.522 12.119z" fill="#e1e3e6"/><path d="m240 56h64a0 0 0 0 1 0 0v16a16 16 0 0 1 -16 16h-32a16 16 0 0 1 -16-16v-16a0 0 0 0 1 0 0z" fill="#74C69D"/><path d="m24 216v256a24.027 24.027 0 0 0 24 24h112a24.027 24.027 0 0 0 24-24v-256a7.976 7.976 0 0 0 -2.347-5.661l-44.577-44.577c2.424-8.132 6.924-24.982 6.924-37.762 0-10.418-2.993-23.536-5.41-32.437a8 8 0 0 0 5.41-7.563v-48a24.028 24.028 0 0 0 -24-24h-32a24.028 24.028 0 0 0 -24 24v48a8 8 0 0 0 5.41 7.563c-2.417 8.901-5.41 22.019-5.41 32.437 0 12.78 4.5 29.63 6.924 37.762l-44.577 44.577a7.976 7.976 0 0 0 -2.347 5.661zm56-176a8.009 8.009 0 0 1 8-8h32a8.009 8.009 0 0 1 8 8v8h-48zm0 24h48v16h-48zm5.913 32h36.176c2.236 7.673 5.911 21.833 5.911 32 0 10.143-3.678 24.319-5.913 32h-36.176c-2.236-7.673-5.911-21.833-5.911-32 0-10.143 3.678-24.319 5.913-32zm-2.6 80h41.374l32 32h-105.374zm-43.313 48h128v16h-128zm0 32h128v176h-128zm0 192h128v24a8.009 8.009 0 0 1 -8 8h-112a8.009 8.009 0 0 1 -8-8z"/><path d="m200 264v207.507a24.52 24.52 0 0 0 24.492 24.493h95.016a24.52 24.52 0 0 0 24.492-24.493v-207.507a71.6 71.6 0 0 0 -24.724-54.284l-15.01-120.089a23.94 23.94 0 0 0 7.734-17.627v-8a8 8 0 0 0 7.761-9.94l-4.97-19.881a23.967 23.967 0 0 0 -23.283-18.179h-39.016a23.966 23.966 0 0 0 -23.283 18.179l-4.97 19.881a8 8 0 0 0 7.761 9.94v8a23.937 23.937 0 0 0 7.735 17.627l-15.012 120.089a71.6 71.6 0 0 0 -24.723 54.284zm44.731-225.94a7.99 7.99 0 0 1 7.761-6.06h39.016a7.99 7.99 0 0 1 7.762 6.06l2.484 9.94h-59.508zm51.269 25.94v8a8.009 8.009 0 0 1 -8 8h-32a8.009 8.009 0 0 1 -8-8v-8zm-58.759 156.112a8 8 0 0 0 2.967-5.275l14.857-118.861c.311.012.621.024.935.024h32c.313 0 .624-.012.935-.024l14.857 118.861a8 8 0 0 0 2.967 5.275 55.737 55.737 0 0 1 21.241 43.888v207.507a8.5 8.5 0 0 1 -8.492 8.493h-95.016a8.5 8.5 0 0 1 -8.492-8.493v-207.507a55.737 55.737 0 0 1 21.241-43.888z"/><path d="m360 240v232a24.027 24.027 0 0 0 24 24h80a24.027 24.027 0 0 0 24-24v-232a64.365 64.365 0 0 0 -32-55.427v-88.573h8a8 8 0 0 0 8-8v-32a8 8 0 0 0 -8-8v-8a24.028 24.028 0 0 0 -24-24h-32a24.028 24.028 0 0 0 -24 24v8a8 8 0 0 0 -8 8v32a8 8 0 0 0 8 8h8v88.573a64.365 64.365 0 0 0 -32 55.427zm112 232a8.009 8.009 0 0 1 -8 8h-80a8.009 8.009 0 0 1 -8-8v-24h96zm0-232v192h-96v-192zm-72-200a8.009 8.009 0 0 1 8-8h32a8.009 8.009 0 0 1 8 8v8h-48zm-8 24h64v16h-64zm48 32v48h-32v-48zm-36.566 100.623a8 8 0 0 0 4.566-7.223v-29.4h32v29.4a8 8 0 0 0 4.566 7.227 48.262 48.262 0 0 1 24.651 27.373h-90.434a48.262 48.262 0 0 1 24.651-27.377z"/><path d="m104 272a32.036 32.036 0 0 0 -32 32v80a32 32 0 0 0 64 0v-80a32.036 32.036 0 0 0 -32-32zm16 112a16 16 0 0 1 -32 0v-80a16 16 0 0 1 32 0z"/>
<path d="m272 416.262c11.84 0 22.5-8.279 30.018-23.312 6.606-13.213 10.245-30.6 10.245-48.95s-3.639-35.737-10.245-48.95c-7.518-15.033-18.178-23.312-30.018-23.312s-22.5 8.279-30.018 23.312c-6.606 13.213-10.244 30.6-10.244 48.95s3.638 35.737 10.244 48.95c7.518 15.033 18.178 23.312 30.018 23.312zm0-128c11.2 0 23.737 23.837 23.737 55.738s-12.532 55.738-23.737 55.738-23.738-23.838-23.738-55.738 12.538-55.738 23.738-55.738z"/></svg>