
<svg version="1.1" id="Capa_1" xmlns="http://www.w3.org/2000/svg" xmlns:xlink="http://www.w3.org/1999/xlink" x="0px" y="0px"
	 viewBox="0 0 511.999 511.999" style="enable-background:new 0 0 511.999 511.999;" xml:space="preserve">
<circle style="fill:#E1F1FB;" cx="256.285" cy="171.36" r="163.93"/>
<g>
	<path style="fill:#BDE2EF;" d="M112.354,171.363c0-87.177,68.052-158.449,153.93-163.618c-3.309-0.199-6.641-0.313-10.001-0.313
		c-90.536,0-163.931,73.394-163.931,163.931s73.394,163.931,163.931,163.931c3.359,0,6.691-0.113,10.001-0.313
		C180.406,329.812,112.354,258.541,112.354,171.363z"/>
	<circle style="fill:#BDE2EF;" cx="256.285" cy="170.3" r="125.478"/>
</g>
<path style="fill:#97CEDD;" d="M150.808,170.301c0-65.932,50.853-119.984,115.476-125.081c-3.3-0.26-6.634-0.396-10.001-0.396
	c-69.299,0-125.477,56.178-125.477,125.477c0,69.299,56.178,125.477,125.477,125.477c3.366,0,6.7-0.136,10.001-0.396
	C201.661,290.286,150.808,236.233,150.808,170.301z"/>
<rect x="87.003" y="322.46" style="fill:#fc8c03;" width="338.63" height="153.839"/>
<rect x="87.003" y="322.46" style="fill:#a85d00;" width="20.001" height="153.839"/>
<path style="fill:#E1F1FB;" d="M132.069,399.381c0,29.099,9.724,55.837,25.977,76.922h185.596
	c16.252-21.084,25.977-47.823,25.977-76.922c0-29.099-9.724-55.836-25.977-76.921H158.046
	C141.794,343.545,132.069,370.283,132.069,399.381z"/>
<path style="fill:#BDE2EF;" d="M178.047,322.461h-20.001c-16.252,21.084-25.977,47.823-25.977,76.921
	c0,29.099,9.724,55.837,25.977,76.922h20.001c-16.252-21.084-25.977-47.823-25.977-76.922
	C152.072,370.282,161.795,343.545,178.047,322.461z"/>
<g>
	<path style="fill:#fc8c03;" d="M431.744,295.524H80.896c-3.838,0-6.949,3.111-6.949,6.949v16.426c0,3.838,3.111,6.949,6.949,6.949
		h350.847c3.838,0,6.949-3.111,6.949-6.949v-16.426C438.693,298.635,435.582,295.524,431.744,295.524z"/>
	<path style="fill:#fc8c03;" d="M431.744,474.107H80.896c-3.838,0-6.949,3.111-6.949,6.949v16.426c0,3.838,3.111,6.949,6.949,6.949
		h350.847c3.838,0,6.949-3.111,6.949-6.949v-16.426C438.693,477.218,435.582,474.107,431.744,474.107z"/>
</g>
<g>
	<path style="fill:#a85d00;" d="M431.744,305.849H80.896c-3.219,0-5.919-2.192-6.708-5.162c-0.152,0.571-0.241,1.168-0.241,1.787
		v16.426c0,3.838,3.111,6.949,6.949,6.949h350.847c3.838,0,6.949-3.111,6.949-6.949v-16.426c0-0.619-0.089-1.216-0.241-1.787
		C437.662,303.656,434.963,305.849,431.744,305.849z"/>
	<path style="fill:#a85d00;" d="M431.744,484.431H80.896c-3.219,0-5.919-2.191-6.708-5.162c-0.152,0.571-0.241,1.168-0.241,1.787
		v16.426c0,3.838,3.111,6.949,6.949,6.949h350.847c3.838,0,6.949-3.111,6.949-6.949v-16.426c0-0.619-0.089-1.216-0.241-1.787
		C437.662,482.239,434.963,484.431,431.744,484.431z"/>
</g>
<path style="fill:#56BB98;" d="M185.973,378.373c6.115,2.785,11.886,6.192,17.252,10.118c0.511,0.374,1.196,0.374,1.707-0.001
	c16.167-11.839,36.081-18.858,57.656-18.858c23.767,0,45.541,8.493,62.485,22.593c4.869,4.052,4.869,11.453,0,15.505
	c-16.944,14.101-38.716,22.593-62.485,22.593c-21.575,0-41.49-7.018-57.655-18.858c-0.511-0.374-1.197-0.374-1.708-0.001
	c-5.367,3.926-11.137,7.332-17.252,10.119c-0.962,0.439-2.059-0.284-2.059-1.341v-40.528
	C183.914,378.657,185.011,377.934,185.973,378.373z"/>
<path style="fill:#57AA8F;" d="M325.073,392.226c-0.923-0.769-1.868-1.513-2.819-2.248c-16.51,12.746-37.192,20.345-59.665,20.345
	c-21.574,0-41.49-7.018-57.655-18.858c-0.511-0.375-1.197-0.375-1.708-0.001c-5.367,3.926-11.137,7.332-17.252,10.119
	c-0.962,0.439-2.059-0.284-2.059-1.341v20.001c0,1.057,1.097,1.78,2.059,1.341c6.115-2.785,11.886-6.192,17.252-10.119
	c0.511-0.374,1.196-0.374,1.708,0.001c16.167,11.84,36.081,18.858,57.655,18.858c23.767,0,45.541-8.493,62.484-22.593
	C329.942,403.678,329.943,396.278,325.073,392.226z"/>
<path style="fill:#74C69D;" d="M325.073,407.731c-10.203,8.491-22.166,14.929-35.252,18.722c-6.029-7.153-9.668-16.388-9.668-26.476
	s3.638-19.321,9.668-26.476c13.086,3.794,25.049,10.232,35.252,18.723C329.943,396.278,329.942,403.678,325.073,407.731z"/>
<path style="fill:#74C69D;" d="M325.073,392.226c0,0-0.001-0.001-0.002-0.001c-0.923-0.768-1.866-1.512-2.818-2.247
	c-11.868,9.163-25.899,15.645-41.194,18.577c1.428,6.718,4.49,12.832,8.761,17.898c0.001,0,0.002,0,0.003-0.001
	c13.303-3.856,25.294-10.437,35.248-18.721C330.008,403.623,329.862,396.212,325.073,392.226z"/>
<path d="M445.872,318.967v-16.426c0-7.967-6.481-14.45-14.45-14.45h-51.098c25.965-27.458,42.04-62.462,45.759-100.367
	c0.404-4.122-2.609-7.792-6.731-8.198c-4.121-0.4-7.792,2.61-8.197,6.732c-3.875,39.493-22.458,75.551-52.414,101.832h-39.689
	c41.96-22.585,69.961-66.898,69.961-117.171c0-73.344-59.67-133.014-133.014-133.014c-73.343,0-133.013,59.67-133.013,133.014
	c0,50.273,28.002,94.586,69.961,117.17h-39.688c-33.83-29.697-53.179-72.245-53.179-117.17c0-85.974,69.944-155.919,155.918-155.919
	c79.181,0,145.759,59.264,154.866,137.851c0.478,4.115,4.205,7.058,8.313,6.587c4.115-0.477,7.063-4.199,6.587-8.314
	C415.813,65.239,342.616,0,255.999,0C161.754,0,85.08,76.675,85.08,170.92c0,43.823,16.789,85.571,46.604,117.17H80.576
	c-7.968,0-14.45,6.482-14.45,14.45v16.426c0,7.497,5.74,13.676,13.057,14.38v133.397c-7.316,0.704-13.057,6.882-13.057,14.38v16.426
	c0,7.967,6.481,14.45,14.45,14.45h152.447c4.143,0,7.5-3.358,7.5-7.5s-3.357-7.5-7.5-7.5H81.127v-15.325
	c3.323,0,344.581,0,349.745,0v15.325H268.025c-4.143,0-7.5,3.358-7.5,7.5s3.357,7.5,7.5,7.5h163.398
	c7.968,0,14.45-6.482,14.45-14.45v-16.426c0-7.497-5.74-13.676-13.057-14.38V333.346
	C440.132,332.643,445.872,326.465,445.872,318.967z M137.987,170.92c0-65.073,52.94-118.013,118.012-118.013
	s118.013,52.94,118.013,118.013c0,59.818-44.675,110.118-103.983,117.17h-28.058C182.662,281.038,137.987,230.738,137.987,170.92z
	 M94.183,466.673V333.417h49.09c-25.331,40.835-25.369,92.36,0,133.256L94.183,466.673L94.183,466.673z M339.646,466.673H161.402
	c-29.583-39.428-29.577-93.837,0-133.256h178.243C369.23,372.844,369.225,427.252,339.646,466.673z M417.816,466.673h-60.041
	c25.332-40.835,25.37-92.359,0-133.256h60.041V466.673z M430.872,318.416c-17.238,0-333.269,0-349.745,0v-15.325
	c4.89,0,343.568,0,349.745,0V318.416z"/>
<path d="M329.551,386.527c-35.336-29.409-86.61-32.852-125.795-6.53c-4.791-3.213-9.818-6.024-14.993-8.382
	c-5.92-2.7-12.671,1.646-12.671,8.167v40.527c0,6.527,6.759,10.864,12.669,8.167c5.174-2.356,10.202-5.168,14.995-8.383
	c38.754,26.031,90.033,23.23,125.795-6.529c4.038-3.361,6.354-8.289,6.354-13.519l0,0l0,0
	C335.906,394.814,333.59,389.888,329.551,386.527z M209.039,405.478c-3.157-2.308-7.401-2.31-10.562,0.001
	c-2.39,1.749-4.856,3.376-7.384,4.875v-20.618c2.527,1.5,4.994,3.128,7.384,4.875c3.158,2.309,7.401,2.31,10.566-0.003
	c20.455-14.979,45.092-20.085,68.348-16.117c-6.741,13.625-6.745,29.474,0,43.108C254.089,425.574,229.464,420.437,209.039,405.478z
	 M319.955,402.032c-8.241,6.858-17.611,12.136-27.601,15.671c-6.692-10.833-6.688-24.487,0-35.316
	c15.123,5.352,27.968,15.083,28.469,17.014C321.064,400.332,320.785,401.342,319.955,402.032z"/>
<path d="M301.183,390.175c-4.662-0.915-8.971,2.654-8.971,7.36c0,4.239,3.466,7.5,7.5,7.5c4.076,0,7.5-3.33,7.5-7.5
	C307.213,394.062,304.809,390.927,301.183,390.175z"/>
<g>
</g>
<g>
</g>
<g>
</g>
<g>
</g>
<g>
</g>
<g>
</g>
<g>
</g>
<g>
</g>
<g>
</g>
<g>
</g>
<g>
</g>
<g>
</g>
<g>
</g>
<g>
</g>
<g>
</g>
</svg>
