<svg id="Capa_1" color-profile="hsl(129, 53%, 90%)" enable-background="new 0 0 480 480" height="512" viewBox="0 0 480 480" width="512" xmlns="http://www.w3.org/2000/svg"><g><g><g id="ouline_15_"><path d="m184.288 424c17.673 0 32-14.327 32-32s-14.327-32-32-32-32 14.327-32 32c.02 17.665 14.335 31.98 32 32zm0-48c8.837 0 16 7.163 16 16s-7.163 16-16 16-16-7.163-16-16c.01-8.832 7.168-15.99 16-16z"/><path d="m476.088 171.343-40.521-108.051c2.871-1.29 4.719-4.144 4.721-7.292v-48c0-4.418-3.582-8-8-8h-64c-4.418 0-8 3.582-8 8v48c.002 3.148 1.85 6.002 4.721 7.292l-36.914 98.44c.127-.569.192-1.149.193-1.732v-40c-.01-8.832-7.168-15.99-16-16h-48c-8.832.01-15.99 7.168-16 16v40c0 2.546 1.215 4.939 3.27 6.441l-11.27 20.286v-50.727c0-4.418-3.582-8-8-8h-26c-16.561.019-29.981 13.439-30 30v66h-80v-68c-.018-15.457-12.543-27.982-28-28h-38c-16.561.019-29.981 13.439-30 30v300c.014 12.145 9.855 21.986 22 22h210c1.45.001 2.872-.394 4.114-1.142 2.561.754 5.216 1.139 7.886 1.142h88c4.687.005 9.3-1.174 13.41-3.427 5.255 2.275 10.922 3.442 16.648 3.427h75.2c23.196 0 42-18.803 42.001-41.999 0-3.179-.361-6.347-1.076-9.445-.045-.193-.1-.384-.155-.573l-.589-1.895c-8.655-27.982-10.451-57.636-5.239-86.458l3.1-17.081c1.867-10.304 3.179-20.7 3.928-31.145.487-1.034.049-111.184-1.138-112.58-.615-2.537-1.379-5.035-2.29-7.481zm-99.8-155.343h48v32h-48zm5.544 48h36.912l42 112h-120.912zm-117.544 56h48v32h-48zm-30.246 152 4 16h-107.508l4-16zm14.246 32v16h-128v-16zm-184-160h4c6.624.007 11.993 5.376 12 12v68h-16zm-42 320c-3.312-.003-5.997-2.688-6-6v-300c.008-7.729 6.271-13.992 14-14h18v80c.01 8.832 7.168 15.99 16 16h112c8.832-.01 15.99-7.168 16-16v-66c.008-7.729 6.271-13.992 14-14h18v112h-96c-3.671 0-6.871 2.499-7.761 6.06l-6.485 25.94h-1.754c-4.418 0-8 3.582-8 8v32c0 4.418 3.582 8 8 8h.84l14.222 128zm202.84 0h-81.68l-14.222-128h110.124zm119.16-12c-.007 6.624-5.376 11.993-12 12h-88c-1.019-.003-2.033-.136-3.018-.395l5.289-47.605h95.729c1.105 0 2 .895 2 2zm0-54c0 1.105-.895 2-2 2h-93.951l3.556-32h90.395c1.105 0 2 .895 2 2zm0-48c0 1.105-.895 2-2 2h-88.617l1.777-16h.84c4.418 0 8-3.582 8-8v-8h78c1.105 0 2 .895 2 2zm0-48c0 1.105-.895 2-2 2h-78v-8c0-4.418-3.582-8-8-8h-1.754l-4-16h91.754c1.105 0 2 .895 2 2zm-2-46h-102v-36.135c.537-1.084 1.093-2.16 1.677-3.211l27.03-48.654h38.586l27.03 48.654c6.339 11.427 9.669 24.278 9.677 37.346 0 1.105-.895 2-2 2zm115.607 198.186c-4.92 6.217-12.419 9.834-20.347 9.814h-75.2c-1.537 0-3.071-.134-4.585-.4 1.666-3.64 2.528-7.597 2.525-11.6v-34c.003-3.562-1.057-7.044-3.044-10 1.987-2.956 3.047-6.438 3.044-10v-28c.003-3.562-1.057-7.044-3.044-10 1.987-2.956 3.047-6.438 3.044-10v-28c.003-3.562-1.057-7.044-3.044-10 1.987-2.956 3.047-6.438 3.044-10v-6h102.8c-.74 7.946-1.817 15.859-3.24 23.687l-3.105 17.081c-5.671 31.358-3.716 63.619 5.7 94.063l.5 1.594c1.699 7.644-.158 15.646-5.048 21.761zm6.21-174.186h-103.817v-6c.003-3.562-1.057-7.044-3.044-10 1.987-2.956 3.047-6.438 3.044-10-.01-15.787-4.033-31.312-11.691-45.117l-9.38-16.883h125c.045.837-.002 84.822-.112 88z"/><path d="m40.288 312c-4.418 0-8 3.582-8 8v40c0 4.418 3.582 8 8 8s8-3.582 8-8v-40c0-4.418-3.582-8-8-8z"/><path d="m40.288 384c-4.418 0-8 3.582-8 8v8c0 4.418 3.582 8 8 8s8-3.582 8-8v-8c0-4.418-3.582-8-8-8z"/><path d="m443.259 320.572c-4.102-1.641-8.758.353-10.399 4.456 0 0 0 .001-.001.001-11.02 27.587-11.92 58.185-2.538 86.371l2.377 7.13c1.438 4.178 5.991 6.398 10.168 4.96 4.12-1.418 6.347-5.873 5.01-10.02l-2.376-7.129c-8.187-24.596-7.402-51.297 2.215-75.37 1.641-4.102-.354-8.758-4.456-10.399z"/><path d="m434.916 149.029-3.2-8c-1.641-4.102-6.297-6.098-10.399-4.457s-6.098 6.297-4.457 10.399l3.2 8c1.641 4.102 6.297 6.098 10.399 4.457s6.098-6.297 4.457-10.399z"/><path d="m422.116 117.029-6.4-16c-1.641-4.102-6.297-6.098-10.399-4.457s-6.098 6.297-4.457 10.399l6.4 16c1.641 4.102 6.297 6.098 10.399 4.457s6.098-6.297 4.457-10.399z"/></g></g></g></svg>