<svg height="512" viewBox="0 0 512 512" width="512" xmlns="http://www.w3.org/2000/svg"><g id="filled_outline" data-name="filled outline"><path d="m376 248h64v144a32 32 0 0 1 -32 32 32 32 0 0 1 -32-32z" fill="#eaeae8"/><rect fill="#cbcbcb" height="64" rx="16" width="32" x="376" y="296"/><path d="m248 120h208a32 32 0 0 1 32 32v64a32 32 0 0 1 -32 32h-208a0 0 0 0 1 0 0v-128a0 0 0 0 1 0 0z" fill="#eaeae8"/><path d="m248 120-40 16h-32v96h32l40 16z" fill="#cbcbcb"/><path d="m176 160h24a8 8 0 0 1 0 16h-24z" fill="#eaeae8"/><path d="m176 192h24a8 8 0 0 1 0 16h-24z" fill="#eaeae8"/><circle cx="392" cy="312" fill="#fc8c03" r="16"/><circle cx="336" cy="184" fill="#6ee7f5" r="8"/><circle cx="367.796" cy="184" fill="#6ee7f5" r="10"/><circle cx="400.592" cy="184" fill="#6ee7f5" r="8"/><path d="m144 160h-72a40 40 0 1 1 34.644-60.006 8 8 0 0 1 -13.85 8.012 24 24 0 1 0 -20.794 35.994h72a8 8 0 0 1 0 16z" fill="#fbb540"/><path d="m72 288a40 40 0 0 1 0-80h72a8 8 0 0 1 0 16h-72a24 24 0 1 0 20.794 35.994 8 8 0 0 1 13.85 8.012 40.145 40.145 0 0 1 -34.644 19.994z" fill="#fbb540"/><path d="m72 192h-40a8 8 0 0 1 0-16h40a8 8 0 0 1 0 16z" fill="#fbb540"/><path d="m128 192h-24a8 8 0 0 1 0-16h24a8 8 0 0 1 0 16z" fill="#fbb540"/><g fill="#cbcbcb"><path d="m488 152v8h-24a8 8 0 0 1 0-16h22.99a32 32 0 0 1 1.01 8z"/><path d="m488 176v16h-24a8 8 0 0 1 0-16z"/><path d="m488 208v8a32 32 0 0 1 -1.01 8h-22.99a8 8 0 0 1 0-16z"/><path d="m376 248h64v8h-64z"/></g><path d="m456 112h-208a7.958 7.958 0 0 0 -2.783.508c-.066.024-.117.035-.188.064l-.123.05-.028.011-38.419 15.367h-30.459a8 8 0 0 0 -8 8v96a8 8 0 0 0 8 8h30.459l38.419 15.367.028.011.123.05h.025a7.972 7.972 0 0 0 2.946.572h120v136a40 40 0 0 0 80 0v-136h8a40.045 40.045 0 0 0 40-40v-64a40.045 40.045 0 0 0 -40-40zm-248 112h-24v-16h16a8 8 0 0 0 0-16h-16v-16h16a8 8 0 0 0 0-16h-16v-16h24a8 8 0 0 0 2.971-.572l29.029-11.612v104.368l-29.029-11.612a8 8 0 0 0 -2.971-.572zm176 110.624a23.944 23.944 0 0 0 16 0v9.376a8 8 0 0 1 -16 0zm8-14.624a8 8 0 1 1 8-8 8.009 8.009 0 0 1 -8 8zm40 72a24 24 0 0 1 -48 0v-25.376a23.992 23.992 0 0 0 32-22.624v-32a23.992 23.992 0 0 0 -32-22.624v-33.376h48zm24-152h-200v-112h200a24.039 24.039 0 0 1 22.624 16h-14.624a8 8 0 0 0 0 16h16v16h-16a8 8 0 0 0 0 16h16v16h-16a8 8 0 0 0 0 16h14.624a24.039 24.039 0 0 1 -22.624 16z"/><circle cx="336" cy="184" r="8"/><circle cx="367.796" cy="184" r="10"/><circle cx="400.592" cy="184" r="8"/><path d="m144 144h-72a24 24 0 1 1 20.794-35.994 8 8 0 0 0 13.85-8.012 40 40 0 1 0 -34.644 60.006h72a8 8 0 0 0 0-16z"/><path d="m144 208h-72a40 40 0 1 0 34.644 60.006 8 8 0 0 0 -13.85-8.012 24 24 0 1 1 -20.794-35.994h72a8 8 0 0 0 0-16z"/><path d="m72 192a8 8 0 0 0 0-16h-40a8 8 0 0 0 0 16z"/><path d="m128 192a8 8 0 0 0 0-16h-24a8 8 0 0 0 0 16z"/></g></svg>