<svg
  height="512"
  viewBox="0 0 64 64"
  width="512"
  xmlns="http://www.w3.org/2000/svg"
>
  <path
    d="m18 50a8 8 0 0 1 -8-8v-11.108a4.973 4.973 0 0 0 -2.486-4.321 4.7 4.7 0 0 1 -1.369-1.022c-.6-.842 1.15-2.948.826-3.922s-2.971-1.57-2.971-2.627c0-2.153 3.008-3.385 4.244-5.081 1.179-1.619 1.287-4.911 3.246-5.819 1.784-.823 4.346 1.2 6.51 1.2s4.726-2.018 6.511-1.2c1.958.9 2.066 4.2 3.245 5.814 1.236 1.701 4.244 2.932 4.244 5.086 0 1.055-2.65 1.658-2.972 2.624s1.435 3.077.832 3.92a4.7 4.7 0 0 1 -1.375 1.026 4.974 4.974 0 0 0 -2.485 4.321v11.109a8 8 0 0 1 -8 8z"
    fill="#88bf40"
  />
  <path
    d="m56.886 19.307.892-.893a2 2 0 1 0 -2.828-2.828l-.893.892a8 8 0 1 0 2.829 2.829z"
    fill="#f9e000"
  />
  <g fill="#ecaf4a">
    <path
      d="m45 14h2a0 0 0 0 1 0 0v2a4 4 0 0 1 -4 4h-2a0 0 0 0 1 0 0v-2a4 4 0 0 1 4-4z"
    />
    <path
      d="m35 12h2a4 4 0 0 1 4 4v2a0 0 0 0 1 0 0h-2a4 4 0 0 1 -4-4v-2a0 0 0 0 1 0 0z"
      transform="matrix(-1 0 0 -1 76 30)"
    />
    <path
      d="m45 20h2a0 0 0 0 1 0 0v2a4 4 0 0 1 -4 4h-2a0 0 0 0 1 0 0v-2a4 4 0 0 1 4-4z"
    />
    <path
      d="m35 18h2a4 4 0 0 1 4 4v2a0 0 0 0 1 0 0h-2a4 4 0 0 1 -4-4v-2a0 0 0 0 1 0 0z"
      transform="matrix(-1 0 0 -1 76 42)"
    />
  </g>
  <path
    d="m55 30a4 4 0 0 1 -4 4h-1v16a2 2 0 0 1 -2 2h-23a2 2 0 0 1 -2-2v-16h-1a4 4 0 0 1 -4-4 4 4 0 0 1 4-4h29a4 4 0 0 1 4 4z"
    fill="#d69f44"
  />
  <path
    d="m32 52v-18h-1a4 4 0 1 1 0-8h24a4 4 0 0 1 0 8h-1v18z"
    fill="#ecaf4a"
  />
  <circle cx="45" cy="50" fill="#ef5249" r="11" />
  <rect fill="#ecaf4a" height="14" rx="7" width="24" x="14" y="47" />
  <path
    d="m8.318 47.239a11.064 11.064 0 0 1 -1.318-5.239v-11h-2v11a13.055 13.055 0 0 0 1.559 6.188z"
  />
  <path
    d="m7.943 50.254a12.916 12.916 0 0 0 1.444 1.5l1.322-1.5a10.945 10.945 0 0 1 -1.219-1.268z"
  />
  <path
    d="m5.025 21.307c.339.193.906.516.987.6a4.9 4.9 0 0 1 -.412 1.193c-.43 1-.917 2.125-.257 3.048a5.386 5.386 0 0 0 1.676 1.29 3.965 3.965 0 0 1 1.981 3.452v11.11a8.98 8.98 0 0 0 5.033 8.081 7.99 7.99 0 0 0 6.967 11.919h10a7.987 7.987 0 0 0 6.168-2.911 12 12 0 0 0 19.832-9.089 11.925 11.925 0 0 0 -2-6.619v-8.381a4.99 4.99 0 0 0 3.461-8.594 8.984 8.984 0 0 0 -.342-6.917l.369-.372a3 3 0 0 0 0-4.23 3.061 3.061 0 0 0 -4.249 0l-.369.368a9.091 9.091 0 0 0 -5.87-.648v-.607a1 1 0 0 0 -1-1h-1v-5h-2v5.1a4.954 4.954 0 0 0 -2 .925v-8.025h-2v6.026a4.954 4.954 0 0 0 -2-.925v-3.101h-2v3h-1a1 1 0 0 0 -1 1v2a4.948 4.948 0 0 0 1.026 3h-.026a1 1 0 0 0 -1 1v2a5.006 5.006 0 0 0 5 5h-8.017a5.768 5.768 0 0 0 -.579-1.9c-.161-.373-.43-1-.447-1.113a4.715 4.715 0 0 1 1.016-.682c.95-.545 2.027-1.16 2.027-2.305 0-1.849-1.49-3.063-2.8-4.136a9.521 9.521 0 0 1 -1.627-1.533 8.5 8.5 0 0 1 -.907-2.091c-.529-1.549-1.131-3.3-2.733-4.049-1.4-.646-2.925-.087-4.4.454a8.27 8.27 0 0 1 -2.533.655 8.27 8.27 0 0 1 -2.527-.655c-1.474-.541-3-1.1-4.4-.453-1.6.744-2.2 2.5-2.73 4.048a8.5 8.5 0 0 1 -.907 2.091 9.521 9.521 0 0 1 -1.627 1.533c-1.319 1.073-2.809 2.287-2.809 4.136 0 1.149 1.076 1.765 2.025 2.307zm25.975 38.693h-10a6 6 0 0 1 0-12v5h2v-5h2v7h2v-7h2v5h2v-5a6 6 0 0 1 0 12zm-7-25h2v-2h-4a3 3 0 0 1 0-6h5.025a4.975 4.975 0 0 0 3.975 8v11h-7zm21 25a10.038 10.038 0 0 1 -6.751-2.639 7.959 7.959 0 0 0 -2.88-10.054 10.043 10.043 0 0 1 8.631-7.252v3.652a3.344 3.344 0 0 1 -1.108-1.16l-1.787.9a4.693 4.693 0 0 0 3.895 2.553 4.693 4.693 0 0 0 3.9-2.553l-1.787-.9a3.344 3.344 0 0 1 -1.113 1.16v-3.656a10 10 0 0 1 -1 19.949zm8.553-42.657a1 1 0 0 0 1.214-.155l.895-.895a1 1 0 0 1 1.407 1.413l-.89.9a1 1 0 0 0 -.15 1.214 6.977 6.977 0 0 1 .684 5.5 4.931 4.931 0 0 0 -1.713-.32h-8.026a4.948 4.948 0 0 0 1.026-3v-2a1 1 0 0 0 -1-1h-.026a4.94 4.94 0 0 0 .956-2.31 7.05 7.05 0 0 1 5.623.653zm-11.553 6.657a3 3 0 0 1 3-3h1v1a3 3 0 0 1 -3 3h-1zm3-9h1v1a3 3 0 0 1 -3 3h-1v-1a3 3 0 0 1 3-3zm-9-2h1a3 3 0 0 1 3 3v1h-1a3 3 0 0 1 -3-3zm0 7v-1h1a3 3 0 0 1 3 3v1h-1a3 3 0 0 1 -3-3zm-3 7h22a3 3 0 0 1 0 6h-1a1 1 0 0 0 -1 1v7.081a11.941 11.941 0 0 0 -6.833-3.022 6.974 6.974 0 0 1 3.206-4.516l1.142-.686-1.03-1.714-1.141.685a8.984 8.984 0 0 0 -4.208 6.21 12.052 12.052 0 0 0 -10.591 8.384c-.179-.06-.361-.111-.545-.159v-12.263a1 1 0 0 0 -1-1h-1a3 3 0 1 1 0-6zm-25.932-10.586a11.01 11.01 0 0 0 1.981-1.905 9.958 9.958 0 0 0 1.181-2.621c.421-1.228.855-2.5 1.678-2.88.653-.3 1.783.114 2.877.514a9.61 9.61 0 0 0 3.215.778 9.61 9.61 0 0 0 3.215-.778c1.094-.4 2.222-.814 2.874-.515.826.384 1.26 1.653 1.681 2.881a9.958 9.958 0 0 0 1.181 2.621 11.01 11.01 0 0 0 1.981 1.905c1.023.835 1.993 1.625 2.064 2.485a5.786 5.786 0 0 1 -1.016.667c-.8.458-1.63.931-1.9 1.735a3.765 3.765 0 0 0 .485 2.59 6.477 6.477 0 0 1 .411 1.109h-5.976a3 3 0 0 1 3-3v-2a4.948 4.948 0 0 0 -3 1.026v-1.026a3 3 0 0 1 3-3v-2a5.006 5.006 0 0 0 -5 5v5.1a4.954 4.954 0 0 0 -2 .925v-7.025h-2v22h2v-7.026a4.948 4.948 0 0 0 3 1.026v11h-1a7.974 7.974 0 0 0 -5.73 2.429 6.974 6.974 0 0 1 -4.27-6.429v-11.11a5.966 5.966 0 0 0 -3-5.19 5.244 5.244 0 0 1 -.985-.665 6.143 6.143 0 0 1 .415-1.141 3.762 3.762 0 0 0 .487-2.577 3.677 3.677 0 0 0 -1.9-1.747 5.652 5.652 0 0 1 -1.017-.67c.073-.859 1.043-1.65 2.068-2.486z"
  />
  <path
    d="m13 25v14h2v-19a5.006 5.006 0 0 0 -5-5v2a3 3 0 0 1 3 3v1.026a4.948 4.948 0 0 0 -3-1.026v2a3 3 0 0 1 3 3z"
  />
  <path d="m33 29h2v2h-2z" />
  <path d="m39 35h2v2h-2z" />
  <path d="m43 29h2v2h-2z" />
  <path d="m53 29h2v2h-2z" />
  <path
    d="m55.878 61.733a16.006 16.006 0 0 0 2.988-19.721l-1.732 1a14.008 14.008 0 0 1 -2.615 17.255z"
  />
</svg>
