<svg height="512" viewBox="0 0 60 60" width="512" xmlns="http://www.w3.org/2000/svg"><g id="Page-1" fill="none" fill-rule="evenodd"><g id="061---Broken-TV" fill-rule="nonzero" transform="translate(0 -1)"><rect id="Rectangle-path" fill="#a0522d" height="42" rx="2" width="58" x="1" y="14"/><path id="Shape" d="m57 14h-3c1.1045695 0 2 .8954305 2 2v38c0 1.1045695-.8954305 2-2 2h3c1.1045695 0 2-.8954305 2-2v-38c0-1.1045695-.8954305-2-2-2z" fill="#783e22"/><rect id="Rectangle-path" fill="#02a9f4" height="34" rx="1" transform="matrix(0 1 -1 0 57 13)" width="34" x="5" y="18"/><path id="Shape" d="m38 18h-3c.5522847 0 1 .4477153 1 1v32c0 .5522847-.4477153 1-1 1h3c.5522847 0 1-.4477153 1-1v-32c0-.5522847-.4477153-1-1-1z" fill="#0377bc"/>
<path id="Shape" d="m14 56v3c0 .5522847-.4477153 1-1 1h-8c-.55228475 0-1-.4477153-1-1v-3z" fill="#7f8e94"/><path id="Shape" d="m11 56v3c0 .5522847-.4477153 1-1 1h3c.5522847 0 1-.4477153 1-1v-3z" fill="#545c60"/><path id="Shape" d="m56 56v3c0 .5522847-.4477153 1-1 1h-8c-.5522847 0-1-.4477153-1-1v-3z" fill="#7f8e94"/><path id="Shape" d="m53 56v3c0 .5522847-.4477153 1-1 1h3c.5522847 0 1-.4477153 1-1v-3z" fill="#545c60"/><circle id="Oval" cx="49" cy="21" fill="#ffeb3a" r="3"/><circle id="Oval" cx="49" cy="31" fill="#F40009" r="3"/><rect id="Rectangle-path" fill="#ffdc00" height="14" rx="1" width="10" x="44" y="38"/><path id="Rectangle-path" d="m44 43h10v5h-10z" fill="#ff9801"/>
<path id="Shape" d="m23 14c0-3.8659932 3.1340068-7 7-7s7 3.1340068 7 7z" fill="#7f8e94"/>
<path id="Shape" d="m30 7c-.5044849.00078729-1.0074065.05610867-1.5.165 3.210739.70437726 5.4988743 3.5479054 5.5 6.835h3c0-3.8659932-3.1340068-7-7-7z" fill="#545c60"/>
<circle id="Oval" cx="18" cy="4" fill="#ffdc00" r="2"/>
<circle id="Oval" cx="42" cy="4" fill="#ffdc00" r="2"/>
<path id="Shape" d="m34.949 31.684c-.1748377-.5238077-.7411616-.8067458-1.265-.632l-2.1.7-1.206-3.016c-.2202705-.5498621-.6729488-.973798-1.236059-1.1575761-.5631101-.1837782-1.1787164-.1084906-1.680941.2055761l-5.461 3.416v-4.582l3.447-1.718c.4942949-.2468713.6948713-.8477051.448-1.342s-.8477051-.6948713-1.342-.448l-3.447 1.724c-.6783104.3355335-1.1071371 1.0272396-1.106 1.784v4.382l-6.4-4.8c-.4418278-.3313708-1.0686292-.2418278-1.4.2s-.2418278 1.0686292.2 1.4l6.705 5.029-8.114 4.058c-.55455.2747125-.9491484.792461-1.067 1.4l-.904 4.513c-.05309854.2599175-.00074247.5302825.14554487.751589.14628735.2213065.37451643.3754164.63445513.428411.06576956.0137352.13281296.0204396.2.02.4748929-.000378.8840215-.3347017.979-.8l.9-4.52 7.891-3.946-.731 5.846c-.0479139.3920735.0216958.7895444.2 1.142l1.864 3.729c.2468713.4942949.8477051.6948713 1.342.448s.6948713-.8477051.448-1.342l-1.865-3.73.787-6.3 4.365 2.183.739 2.216c.1664837.5026587.5263411.9182939 1 1.155l3.63 1.815c.3197527.1596977.7004141.1366785.9985928-.0603866.2981786-.1970651.4685741-.5382372.447-.895-.0215741-.3567629-.2318401-.6749157-.5515928-.8346134l-3.629-1.814-.739-2.216c-.1664837-.5026587-.5263411-.9182939-1-1.155l-4.033-2.021 5.474-3.422 1.206 3.022c.3938845.9823801 1.4849465 1.4878017 2.489 1.153l2.105-.7c.2526672-.0837128.4615346-.2647033.5803459-.5028889.1188113-.2381857.1377616-.5139103.0526541-.7661111z" fill="#282c34"/><g fill="#000"><path id="Shape" d="m57 13h-19.069c-.1434931-1.1396649-.5327995-2.2345676-1.141-3.209l1.932-.645c.5801568-.19137893 1.0874198-.55655245 1.453-1.046l.937-1.249c.2866998.09453826.5861449.14478299.888.149 1.3785844.00096107 2.5811225-.93593832 2.9173311-2.27289747.3362085-1.33695914-.2800995-2.73124846-1.4951498-3.38251543s-2.7173647-.39255927-3.6445819.62761925-1.041645 2.540305-.2775994 3.68779365l-.925 1.24c-.1215912.1635729-.2905708.28576889-.484.35l-2.665.889c-2.6788-2.49892262-6.7178264-2.84531362-9.783-.839l-4.7-2.74c.0368975-.18440938.0559853-.37193826.057-.56 0-1.65685425-1.3431458-3-3-3s-3 1.34314575-3 3 1.3431458 3 3 3c.7067779-.00298154 1.3893257-.25791757 1.925-.719l4.116 2.4c-1.0815455 1.20543621-1.7695131 2.7121969-1.972 4.319h-19.069c-1.65685425 0-3 1.3431458-3 3v38c0 1.6568542 1.34314575 3 3 3v2c0 1.1045695.8954305 2 2 2h8c1.1045695 0 2-.8954305 2-2v-2h30v2c0 1.1045695.8954305 2 2 2h8c1.1045695 0 2-.8954305 2-2v-2c1.6568542 0 3-1.3431458 3-3v-38c0-1.6568542-1.3431458-3-3-3zm-15-10c.5522847 0 1 .44771525 1 1s-.4477153 1-1 1-1-.44771525-1-1 .4477153-1 1-1zm-24 2c-.5522847 0-1-.44771525-1-1s.4477153-1 1-1 1 .44771525 1 1c0 .26521649-.1053568.5195704-.2928932.70710678s-.4418903.29289322-.7071068.29289322zm12 3c2.9246159.00542964 5.4201335 2.1166966 5.91 5h-11.82c.4898665-2.8833034 2.9853841-4.99457036 5.91-5zm-17 51h-8v-2h8zm42 0h-8v-2h8zm3-5c0 .5522847-.4477153 1-1 1h-54c-.55228475 0-1-.4477153-1-1v-38c0-.5522847.44771525-1 1-1h54c.5522847 0 1 .4477153 1 1z"/><path id="Shape" d="m38 17h-32c-1.1045695 0-2 .8954305-2 2v32c0 1.1045695.8954305 2 2 2h32c1.1045695 0 2-.8954305 2-2v-32c0-1.1045695-.8954305-2-2-2zm0 34h-32v-32h32z"/><path id="Shape" d="m49 25c2.209139 0 4-1.790861 4-4s-1.790861-4-4-4-4 1.790861-4 4 1.790861 4 4 4zm0-6c1.1045695 0 2 .8954305 2 2s-.8954305 2-2 2-2-.8954305-2-2 .8954305-2 2-2z"/><path id="Shape" d="m49 35c2.209139 0 4-1.790861 4-4s-1.790861-4-4-4-4 1.790861-4 4 1.790861 4 4 4zm0-6c1.1045695 0 2 .8954305 2 2s-.8954305 2-2 2-2-.8954305-2-2 .8954305-2 2-2z"/>
<path id="Shape" d="m53 37h-8c-1.1045695 0-2 .8954305-2 2v12c0 1.1045695.8954305 2 2 2h8c1.1045695 0 2-.8954305 2-2v-12c0-1.1045695-.8954305-2-2-2zm0 2v3h-8v-3zm0 5v3h-8v-3zm-8 7v-2h8v2z"/></g></g></g></svg>