<svg height="512" viewBox="0 0 512 512" width="512" xmlns="http://www.w3.org/2000/svg">
<g id="filled_outline" data-name="filled outline"><path d="m200 174v66a8 8 0 0 1 -8 8h-112a8 8 0 0 1 -8-8v-88h-26a22 22 0 0 0 -22 22v300a14 14 0 0 0 14 14h196a14 14 0 0 0 14-14v-322h-26a22 22 0 0 0 -22 22z" fill="#bce1ff"/>
<path d="m72 152h12a20 20 0 0 1 20 20v76a0 0 0 0 1 0 0h-24a8 8 0 0 1 -8-8v-88a0 0 0 0 1 0 0z" fill="#8ed2ff"/><path d="m240 152h8v128h-8z" fill="#8ed2ff"/><path d="m453.26 488h-75.2a34 34 0 0 1 -33.246-41.124l3.131-11.312a189.879 189.879 0 0 0 3.192-87.888l-1.637-8.186a283.156 283.156 0 0 1 -5.5-55.525v-73.448a58 58 0 0 1 3.693-20.365l44.307-118.152h48l44.307 118.152a58 58 0 0 1 3.693 20.365v75.954a283.058 283.058 0 0 1 -4.567 50.646l-3.105 17.083a189.882 189.882 0 0 0 5.473 90.26l.589 1.9a34 34 0 0 1 -33.13 41.64z" fill="#8f563b"/>
<path d="m344 200h144v104h-144z" fill="#fc8c03"/><path d="m384 24h64v48h-64z" fill="#fc8c03"/>
<path d="m456 440a8 8 0 0 1 -7.588-5.472l-2.377-7.13a125.762 125.762 0 0 1 2.538-86.371 8 8 0 0 1 14.856 5.942 109.741 109.741 0 0 0 -2.215 75.37l2.376 7.129a8.006 8.006 0 0 1 -7.59 10.532z" fill="#a86545"/><path d="m443.2 176a8 8 0 0 1 -7.431-5.031l-3.2-8a8 8 0 1 1 14.856-5.942l3.2 8a8 8 0 0 1 -7.425 10.973z" fill="#a86545"/>
<path d="m430.4 144a8 8 0 0 1 -7.43-5.031l-6.4-16a8 8 0 1 1 14.856-5.942l6.4 16a8 8 0 0 1 -7.426 10.973z" fill="#a86545"/><path d="m56 384a8 8 0 0 1 -8-8v-40a8 8 0 0 1 16 0v40a8 8 0 0 1 -8 8z" fill="#8ed2ff"/><path d="m56 424a8 8 0 0 1 -8-8v-8a8 8 0 0 1 16 0v8a8 8 0 0 1 -8 8z" fill="#8ed2ff"/>
<path d="m328 176h-48l-29.316 52.769a84.9 84.9 0 0 0 -10.684 41.231 10 10 0 0 0 10 10h108a10 10 0 0 0 10-10 84.9 84.9 0 0 0 -10.684-41.231z" fill="#bce1ff"/><path d="m367.8 272a10.017 10.017 0 0 1 -9.8 8h-108a10.01 10.01 0 0 1 -9.8-8z" fill="#bce1ff"/><path d="m280 128h48a8 8 0 0 1 8 8v40a0 0 0 0 1 0 0h-64a0 0 0 0 1 0 0v-40a8 8 0 0 1 8-8z" fill="#8ed2ff"/>
<g fill="#bce1ff"><rect height="48" rx="10" width="128" x="240" y="376"/><rect height="48" rx="10" width="128" x="240" y="328"/><rect height="48" rx="10" width="128" x="240" y="280"/>
<path d="m348 488h-88a20 20 0 0 1 -20-20v-34a10 10 0 0 1 10-10h108a10 10 0 0 1 10 10v34a20 20 0 0 1 -20 20z"/></g>
<path d="m367.8 272a10.017 10.017 0 0 1 -9.8 8h-108a10.01 10.01 0 0 1 -9.8-8z" fill="#8ed2ff"/><path d="m367.6 320a10.017 10.017 0 0 1 -9.8 8h-108a10.01 10.01 0 0 1 -9.8-8z" fill="#8ed2ff"/><path d="m368 368a10.017 10.017 0 0 1 -9.8 8h-108a10.01 10.01 0 0 1 -9.8-8z" fill="#8ed2ff"/>
<path d="m368 416a10.017 10.017 0 0 1 -9.8 8h-108a10.01 10.01 0 0 1 -9.8-8z" fill="#8ed2ff"/><path d="m272 168h64v8h-64z" fill="#85c4ee"/><path d="m248 488h-96l-16-144h128z" fill="#e4e4e2"/><path d="m136 312 8-32h112l8 32z" fill="#56BB98"/><circle cx="200" cy="408" fill="#8f563b" r="24"/><path d="m128 312h144v32h-144z" fill="#56BB98"/><path d="m200 440a32 32 0 1 0 -32-32 32.036 32.036 0 0 0 32 32zm0-48a16 16 0 1 1 -16 16 16.019 16.019 0 0 1 16-16z"/><path d="m491.8 187.343-40.521-108.051a8 8 0 0 0 4.721-7.292v-48a8 8 0 0 0 -8-8h-64a8 8 0 0 0 -8 8v48a8 8 0 0 0 4.721 7.292l-36.914 98.44a8.043 8.043 0 0 0 .193-1.732v-40a16.019 16.019 0 0 0 -16-16h-48a16.019 16.019 0 0 0 -16 16v40a7.979 7.979 0 0 0 3.27 6.441l-11.27 20.286v-50.727a8 8 0 0 0 -8-8h-26a30.034 30.034 0 0 0 -30 30v66h-80v-68a28.032 28.032 0 0 0 -28-28h-38a30.034 30.034 0 0 0 -30 30v300a22.025 22.025 0 0 0 22 22h210a7.97 7.97 0 0 0 4.114-1.142 28.029 28.029 0 0 0 7.886 1.142h88a27.828 27.828 0 0 0 13.41-3.427 41.625 41.625 0 0 0 16.648 3.427h75.2a42 42 0 0 0 40.925-51.444c-.045-.193-.1-.384-.155-.573l-.589-1.895a182.617 182.617 0 0 1 -5.239-86.458l3.1-17.081a291.736 291.736 0 0 0 3.928-31.145c.487-1.034.049-111.184-1.138-112.58a66 66 0 0 0 -2.29-7.481zm-99.8-155.343h48v32h-48zm5.544 48h36.912l42 112h-120.912zm-117.544 56h48v32h-48zm-30.246 152 4 16h-107.508l4-16zm14.246 32v16h-128v-16zm-184-160h4a12.013 12.013 0 0 1 12 12v68h-16zm-42 320a6.006 6.006 0 0 1 -6-6v-300a14.015 14.015 0 0 1 14-14h18v80a16.019 16.019 0 0 0 16 16h112a16.019 16.019 0 0 0 16-16v-66a14.015 14.015 0 0 1 14-14h18v112h-96a8 8 0 0 0 -7.761 6.06l-6.485 25.94h-1.754a8 8 0 0 0 -8 8v32a8 8 0 0 0 8 8h.84l14.222 128zm202.84 0h-81.68l-14.222-128h110.124zm119.16-12a12.013 12.013 0 0 1 -12 12h-88a12.026 12.026 0 0 1 -3.018-.395l5.289-47.605h95.729a2 2 0 0 1 2 2zm0-54a2 2 0 0 1 -2 2h-93.951l3.556-32h90.395a2 2 0 0 1 2 2zm0-48a2 2 0 0 1 -2 2h-88.617l1.777-16h.84a8 8 0 0 0 8-8v-8h78a2 2 0 0 1 2 2zm0-48a2 2 0 0 1 -2 2h-78v-8a8 8 0 0 0 -8-8h-1.754l-4-16h91.754a2 2 0 0 1 2 2zm-2-46h-102v-36.135c.537-1.084 1.093-2.16 1.677-3.211l27.03-48.654h38.586l27.03 48.654a77.086 77.086 0 0 1 9.677 37.346 2 2 0 0 1 -2 2zm115.607 198.186a25.864 25.864 0 0 1 -20.347 9.814h-75.2a26.463 26.463 0 0 1 -4.585-.4 27.823 27.823 0 0 0 2.525-11.6v-34a17.894 17.894 0 0 0 -3.044-10 17.894 17.894 0 0 0 3.044-10v-28a17.894 17.894 0 0 0 -3.044-10 17.894 17.894 0 0 0 3.044-10v-28a17.894 17.894 0 0 0 -3.044-10 17.894 17.894 0 0 0 3.044-10v-6h102.8c-.74 7.946-1.817 15.859-3.24 23.687l-3.105 17.081a198.679 198.679 0 0 0 5.7 94.063l.5 1.594a25.861 25.861 0 0 1 -5.048 21.761zm6.21-174.186h-103.817v-6a17.894 17.894 0 0 0 -3.044-10 17.894 17.894 0 0 0 3.044-10 93.124 93.124 0 0 0 -11.691-45.117l-9.38-16.883h125c.045.837-.002 84.822-.112 88z"/>
<path d="m56 328a8 8 0 0 0 -8 8v40a8 8 0 0 0 16 0v-40a8 8 0 0 0 -8-8z"/>
<path d="m56 400a8 8 0 0 0 -8 8v8a8 8 0 0 0 16 0v-8a8 8 0 0 0 -8-8z"/>
<path d="m458.971 336.572a8 8 0 0 0 -10.4 4.457 125.762 125.762 0 0 0 -2.538 86.371l2.377 7.13a8 8 0 0 0 15.178-5.06l-2.376-7.129a109.741 109.741 0 0 1 2.215-75.37 8 8 0 0 0 -4.456-10.399z"/><path d="m450.628 165.029-3.2-8a8 8 0 1 0 -14.856 5.942l3.2 8a8 8 0 0 0 14.856-5.942z"/><path d="m437.828 133.029-6.4-16a8 8 0 1 0 -14.856 5.942l6.4 16a8 8 0 0 0 14.856-5.942z"/></g></svg>