<!-- Generator: Adobe Illustrator 19.0.0, SVG Export Plug-In . SVG Version: 6.00 Build 0)  -->
<svg version="1.1" id="Capa_1" xmlns="http://www.w3.org/2000/svg" xmlns:xlink="http://www.w3.org/1999/xlink" x="0px" y="0px"
	 viewBox="0 0 512.004 512.004" style="enable-background:new 0 0 512.004 512.004;" xml:space="preserve">
<circle cx="344.388" cy="456.079" r="18.615"/>
<path id="SVGCleanerId_0" d="M465.408,65.155c-0.14-15.535-12.835-28.026-28.37-27.923h-29.524l-7.539-30.185
	C398.941,2.904,395.218,0,390.946,0H131.66c-27.169-0.074-53.25,10.723-72.405,29.99l-9.959,9.959v0.047
	c-0.735,0.773-1.34,1.657-1.778,2.634c-0.121,0.289-0.223,0.577-0.307,0.875c-0.279,0.8-0.447,1.629-0.503,2.467
	c0,0.205-0.112,0.372-0.112,0.568V83.77c0,5.138,4.17,9.308,9.308,9.308h19.546l8.377,83.77
	c0.019,18.718,11.244,35.611,28.491,42.89l27.411,246.655c0.512,4.71,4.477,8.284,9.215,8.302h142.874
	c10.248,29.087,42.136,44.37,71.232,34.122c29.087-10.248,44.37-42.136,34.122-71.232c-7.009-19.881-24.61-34.131-45.515-36.831
	l20.114-180.998c17.061-7.009,28.277-23.539,28.491-41.978l8.47-84.7h28.361C452.6,93.152,465.268,80.671,465.408,65.155z
	 M131.66,18.616h252.016l4.654,18.615H78.978C93.871,25.141,112.477,18.56,131.66,18.616z M381.638,456.079
	c0,20.561-16.67,37.231-37.231,37.231s-37.231-16.67-37.231-37.231c0-20.561,16.67-37.231,37.231-37.231
	S381.638,435.519,381.638,456.079z M332.837,401.452c-25.792,5.501-44.24,28.258-44.277,54.627H157.321l-25.903-232.693h221.208
	L332.837,401.452z M381.638,176.847c0,15.423-12.5,27.923-27.923,27.923H130.329c-15.6-0.168-28.1-12.956-27.933-28.547
	c0-0.102,0-0.205,0.009-0.307l-8.284-82.839h295.893L381.638,176.847z M400.253,74.462H65.175V55.847h371.863
	c5.138,0,9.308,4.17,9.308,9.308s-4.17,9.308-9.308,9.308H400.253z"/>
<path id="SVGCleanerId_1" d="M263.923,320.187l18.262,33.508h-2.932c-5.138,0-9.308,4.17-9.308,9.308s4.17,9.308,9.308,9.308h18.615
	c5.138,0,9.308-4.17,9.308-9.308c0-1.554-0.391-3.09-1.136-4.458l-25.782-47.255c-2.355-4.57-7.967-6.366-12.538-4.002
	c-4.57,2.355-6.366,7.967-4.002,12.538c0.065,0.13,0.14,0.261,0.214,0.382L263.923,320.187z"/>
<path id="SVGCleanerId_2" d="M186.175,372.31h63.293c5.138,0,9.308-4.17,9.308-9.308s-4.17-9.308-9.308-9.308h-47.609l1.08-1.992
	c2.401-4.542,0.67-10.173-3.872-12.584c-4.468-2.364-9.996-0.735-12.472,3.677l-8.591,15.749c-2.467,4.514-0.8,10.164,3.714,12.631
	C183.085,371.919,184.621,372.31,186.175,372.31z"/>
<path id="SVGCleanerId_3" d="M203.199,331.793c4.514,2.457,10.164,0.8,12.631-3.714c0,0,0,0,0-0.009l26.192-48.065l3.435,6.255
	c2.476,4.505,8.135,6.152,12.649,3.686c4.514-2.467,6.152-8.135,3.686-12.649l0,0l-11.625-21.156
	c-1.629-2.969-4.747-4.821-8.135-4.831l0,0c-3.407,0-6.534,1.862-8.163,4.849l-34.373,63.004
	C197.028,323.677,198.685,329.327,203.199,331.793L203.199,331.793z"/>
<path style="fill:#444;" d="M437.038,83.77H55.867V46.539h381.17c10.406-0.121,18.941,8.209,19.062,18.615l0,0l0,0
	C455.979,75.561,447.444,83.891,437.038,83.77L437.038,83.77z"/>
<path style="fill:#333;" d="M400.253,46.539H55.867l9.969-9.969c17.452-17.452,41.131-27.262,65.815-27.262h259.295
	L400.253,46.539z"/>
<polygon style="fill:#333;" points="335.099,465.387 148.945,465.387 121.021,214.078 121.021,204.771 363.022,204.771 
	363.022,214.078 "/>
<g>
	<path style="fill:#222;" d="M297.868,372.31h-18.615c-5.138,0-9.308-4.17-9.308-9.308s4.17-9.308,9.308-9.308h2.96
		l-18.262-33.508c-2.569-4.449-1.042-10.145,3.416-12.714c4.449-2.569,10.145-1.042,12.714,3.416c0.074,0.13,0.14,0.251,0.214,0.382
		l25.782,47.255c2.476,4.505,0.819,10.164-3.686,12.64C301.005,371.919,299.451,372.319,297.868,372.31z"/>
	<path style="fill:#222;" d="M249.468,372.31h-63.293c-5.138,0-9.308-4.17-9.308-9.308c0-1.554,0.391-3.09,1.136-4.458
		l8.591-15.749c2.513-4.486,8.191-6.078,12.668-3.565c4.403,2.476,6.031,8.005,3.677,12.472l-1.08,1.992h47.609
		c5.138,0,9.308,4.17,9.308,9.308S254.606,372.31,249.468,372.31z"/>
	<path style="fill:#222;" d="M207.648,332.929c-5.138,0-9.308-4.179-9.298-9.317c0-1.554,0.391-3.09,1.136-4.449l34.364-63.004
		c1.629-2.988,4.766-4.849,8.172-4.849l0,0c3.397,0,6.525,1.852,8.163,4.831l11.625,21.156c2.476,4.505,0.828,10.173-3.686,12.649
		c-4.514,2.476-10.173,0.828-12.649-3.686l0,0l-3.462-6.255l-26.22,48.074C214.173,331.067,211.046,332.92,207.648,332.929z"/>
</g>
<path style="fill:#222;" d="M353.715,214.078H130.329c-20.561,0-37.231-16.67-37.231-37.231L83.79,83.77h316.463l-9.308,93.077
	C390.946,197.408,374.275,214.078,353.715,214.078z"/>
<circle style="fill:#B9B9B9;" cx="344.388" cy="456.079" r="46.539"/>
<g>
	<path style="fill:#787D82;" d="M344.407,511.926c-30.846,0-55.846-25.001-55.846-55.846s25.001-55.846,55.846-55.846
		s55.846,25.001,55.846,55.846C400.225,486.907,375.234,511.898,344.407,511.926z M344.407,418.849
		c-20.561,0-37.231,16.67-37.231,37.231c0,20.561,16.67,37.231,37.231,37.231s37.231-16.67,37.231-37.231
		C381.638,435.519,364.968,418.849,344.407,418.849z"/>
	<path style="fill:#787D82;" d="M344.407,474.695c-10.285,0-18.615-8.33-18.615-18.615c0-10.285,8.33-18.615,18.615-18.615
		c10.285,0,18.615,8.33,18.615,18.615C363.022,466.365,354.692,474.695,344.407,474.695z"/>
</g>
<circle cx="344.388" cy="456.079" r="18.615"/>
<g>
	<path id="SVGCleanerId_0_1_" d="M465.408,65.155c-0.14-15.535-12.835-28.026-28.37-27.923h-29.524l-7.539-30.185
		C398.941,2.904,395.218,0,390.946,0H131.66c-27.169-0.074-53.25,10.723-72.405,29.99l-9.959,9.959v0.047
		c-0.735,0.773-1.34,1.657-1.778,2.634c-0.121,0.289-0.223,0.577-0.307,0.875c-0.279,0.8-0.447,1.629-0.503,2.467
		c0,0.205-0.112,0.372-0.112,0.568V83.77c0,5.138,4.17,9.308,9.308,9.308h19.546l8.377,83.77
		c0.019,18.718,11.244,35.611,28.491,42.89l27.411,246.655c0.512,4.71,4.477,8.284,9.215,8.302h142.874
		c10.248,29.087,42.136,44.37,71.232,34.122c29.087-10.248,44.37-42.136,34.122-71.232c-7.009-19.881-24.61-34.131-45.515-36.831
		l20.114-180.998c17.061-7.009,28.277-23.539,28.491-41.978l8.47-84.7h28.361C452.6,93.152,465.268,80.671,465.408,65.155z
		 M131.66,18.616h252.016l4.654,18.615H78.978C93.871,25.141,112.477,18.56,131.66,18.616z M381.638,456.079
		c0,20.561-16.67,37.231-37.231,37.231s-37.231-16.67-37.231-37.231c0-20.561,16.67-37.231,37.231-37.231
		S381.638,435.519,381.638,456.079z M332.837,401.452c-25.792,5.501-44.24,28.258-44.277,54.627H157.321l-25.903-232.693h221.208
		L332.837,401.452z M381.638,176.847c0,15.423-12.5,27.923-27.923,27.923H130.329c-15.6-0.168-28.1-12.956-27.933-28.547
		c0-0.102,0-0.205,0.009-0.307l-8.284-82.839h295.893L381.638,176.847z M400.253,74.462H65.175V55.847h371.863
		c5.138,0,9.308,4.17,9.308,9.308s-4.17,9.308-9.308,9.308H400.253z"/>
</g>
<g>
	<path id="SVGCleanerId_1_1_" d="M263.923,320.187l18.262,33.508h-2.932c-5.138,0-9.308,4.17-9.308,9.308s4.17,9.308,9.308,9.308
		h18.615c5.138,0,9.308-4.17,9.308-9.308c0-1.554-0.391-3.09-1.136-4.458l-25.782-47.255c-2.355-4.57-7.967-6.366-12.538-4.002
		c-4.57,2.355-6.366,7.967-4.002,12.538c0.065,0.13,0.14,0.261,0.214,0.382L263.923,320.187z"/>
</g>
<g>
	<path id="SVGCleanerId_2_1_" d="M186.175,372.31h63.293c5.138,0,9.308-4.17,9.308-9.308s-4.17-9.308-9.308-9.308h-47.609
		l1.08-1.992c2.401-4.542,0.67-10.173-3.872-12.584c-4.468-2.364-9.996-0.735-12.472,3.677l-8.591,15.749
		c-2.467,4.514-0.8,10.164,3.714,12.631C183.085,371.919,184.621,372.31,186.175,372.31z"/>
</g>
<g>
	<path id="SVGCleanerId_3_1_" d="M203.199,331.793c4.514,2.457,10.164,0.8,12.631-3.714c0,0,0,0,0-0.009l26.192-48.065l3.435,6.255
		c2.476,4.505,8.135,6.152,12.649,3.686c4.514-2.467,6.152-8.135,3.686-12.649l0,0l-11.625-21.156
		c-1.629-2.969-4.747-4.821-8.135-4.831l0,0c-3.407,0-6.534,1.862-8.163,4.849l-34.373,63.004
		C197.028,323.677,198.685,329.327,203.199,331.793L203.199,331.793z"/>
</g>
<g>
</g>
<g>
</g>
<g>
</g>
<g>
</g>
<g>
</g>
<g>
</g>
<g>
</g>
<g>
</g>
<g>
</g>
<g>
</g>
<g>
</g>
<g>
</g>
<g>
</g>
<g>
</g>
<g>
</g>
</svg>